# xmcd
#
# Track frame offsets:
#	150
#	13457
#	25269
#	44490
#	56860
#	70695
#	87030
#	98770
#	116470
#	127070
#	148532
#	165482
#
# Disc length: 2363 seconds
#
# Revision: 0
# Processed by: cddbd v1.5.2PL0 Copyright (c) Steve Scherf et al.
# Submitted via: dBpowerAMP V4.0
#
DISCID=a309390c
DTITLE=Bill Harrell and the Virginians - WEBCO CLassics - Volume Four
DYEAR=1998
DGENRE=Bluegrass
TTITLE0=Picture On the Wall
TTITLE1=Flying High
TTITLE2=Mary Dear
TTITLE3=Letter Edged In Black
TTITLE4=Little Home In Tennessee
TTITLE5=Pass Me Not, Oh Gentle Savior
TTITLE6=I Dipped In the Sugar Bowl
TTITLE7=Rebel Soldier
TTITLE8=Tragic Highway
TTITLE9=I Never Will Marry
TTITLE10=A Heart Never Knows
TTITLE11=Camping In Canaan's Land
EXTD=Pinecastle Records\n\nSubmitted by Rich Price
EXTT0=
EXTT1=
EXTT2=
EXTT3=
EXTT4=
EXTT5=
EXTT6=
EXTT7=
EXTT8=
EXTT9=
EXTT10=
EXTT11=
PLAYORDER=
